<svg id="Icon" xmlns="http://www.w3.org/2000/svg" width="15" height="13" viewBox="0 0 15 13">
  <rect id="BG" width="15" height="13" rx="2" fill="#0175b2"/>
  <g id="Icon-2" data-name="Icon" transform="translate(-6.359 3.002)">
    <g id="Group_4565" data-name="Group 4565" transform="translate(10.359 -0.002)">
      <g id="Group_4564" data-name="Group 4564" transform="translate(0 0)">
        <path id="Path_44998" data-name="Path 44998" d="M17.3,3.9a.223.223,0,0,1,0-.2l.284-.58a.66.66,0,0,0-.285-.876l-.57-.3a.223.223,0,0,1-.116-.159L16.5,1.147A.66.66,0,0,0,15.758.6L15.119.7a.223.223,0,0,1-.187-.061L14.467.186a.66.66,0,0,0-.922,0l-.464.449A.223.223,0,0,1,12.894.7l-.639-.09a.66.66,0,0,0-.746.542l-.112.636a.223.223,0,0,1-.116.159l-.57.3a.66.66,0,0,0-.285.876l.284.58a.223.223,0,0,1,0,.2l-.284.58a.66.66,0,0,0,.285.876l.57.3a.223.223,0,0,1,.116.159l.112.636A.66.66,0,0,0,12.16,7a.678.678,0,0,0,.095-.007l.639-.09a.223.223,0,0,1,.187.061l.464.449a.66.66,0,0,0,.922,0l.464-.449a.223.223,0,0,1,.187-.061l.639.09a.66.66,0,0,0,.746-.542l.112-.636a.223.223,0,0,1,.116-.159l.57-.3a.66.66,0,0,0,.285-.876ZM13.13,1.826a.8.8,0,1,1-.8.8A.8.8,0,0,1,13.13,1.826ZM12.715,5.4a.219.219,0,0,1-.31-.31L15.3,2.2a.219.219,0,0,1,.31.31Zm2.169.371a.8.8,0,1,1,.8-.8A.8.8,0,0,1,14.884,5.773Z" transform="translate(-10.359 0.002)" fill="#fff"/>
      </g>
    </g>
    <g id="Group_4567" data-name="Group 4567" transform="translate(14.518 4.604)">
      <g id="Group_4566" data-name="Group 4566">
        <path id="Path_44999" data-name="Path 44999" d="M290.817,310.141a.365.365,0,1,0,.365.365A.366.366,0,0,0,290.817,310.141Z" transform="translate(-290.452 -310.141)" fill="#fff"/>
      </g>
    </g>
    <g id="Group_4569" data-name="Group 4569" transform="translate(12.764 2.265)">
      <g id="Group_4568" data-name="Group 4568">
        <path id="Path_45000" data-name="Path 45000" d="M172.7,152.646a.365.365,0,1,0,.365.365A.366.366,0,0,0,172.7,152.646Z" transform="translate(-172.333 -152.646)" fill="#fff"/>
      </g>
    </g>
  </g>
</svg>
