<svg id="Calender" xmlns="http://www.w3.org/2000/svg" width="13.242" height="13.242" viewBox="0 0 13.242 13.242">
  <g id="Group_4194" data-name="Group 4194">
    <g id="Group_4193" data-name="Group 4193">
      <path id="Path_48239" data-name="Path 48239" d="M11.69,1.035H11.07V0H10.035V1.035H3.207V0H2.173V1.035H1.552A1.554,1.554,0,0,0,0,2.586v9.1a1.554,1.554,0,0,0,1.552,1.552H11.69a1.554,1.554,0,0,0,1.552-1.552v-9.1A1.554,1.554,0,0,0,11.69,1.035Zm.517,10.656a.518.518,0,0,1-.517.517H1.552a.518.518,0,0,1-.517-.517V4.862H12.208Zm0-7.863H1.035V2.586a.518.518,0,0,1,.517-.517h.621V3.1H3.207V2.069h6.828V3.1H11.07V2.069h.621a.518.518,0,0,1,.517.517Z" fill="#999"/>
    </g>
  </g>
  <g id="Group_4196" data-name="Group 4196" transform="translate(2.062 5.841)">
    <g id="Group_4195" data-name="Group 4195" transform="translate(0 0)">
      <rect id="Rectangle_3320" data-name="Rectangle 3320" width="1" height="1" transform="translate(-0.062 0.159)" fill="#999"/>
    </g>
  </g>
  <g id="Group_4198" data-name="Group 4198" transform="translate(4.123 5.841)">
    <g id="Group_4197" data-name="Group 4197" transform="translate(0 0)">
      <rect id="Rectangle_3321" data-name="Rectangle 3321" width="1" height="1" transform="translate(-0.123 0.159)" fill="#999"/>
    </g>
  </g>
  <g id="Group_4200" data-name="Group 4200" transform="translate(6.185 5.841)">
    <g id="Group_4199" data-name="Group 4199" transform="translate(0 0)">
      <rect id="Rectangle_3322" data-name="Rectangle 3322" width="1" height="1" transform="translate(-0.185 0.159)" fill="#999"/>
    </g>
  </g>
  <g id="Group_4202" data-name="Group 4202" transform="translate(8.247 5.841)">
    <g id="Group_4201" data-name="Group 4201" transform="translate(0 0)">
      <rect id="Rectangle_3323" data-name="Rectangle 3323" width="1" height="1" transform="translate(-0.247 0.159)" fill="#999"/>
    </g>
  </g>
  <g id="Group_4204" data-name="Group 4204" transform="translate(10.308 5.841)">
    <g id="Group_4203" data-name="Group 4203" transform="translate(0 0)">
      <rect id="Rectangle_3324" data-name="Rectangle 3324" width="1" height="1" transform="translate(-0.308 0.159)" fill="#999"/>
    </g>
  </g>
  <g id="Group_4206" data-name="Group 4206" transform="translate(2.062 7.903)">
    <g id="Group_4205" data-name="Group 4205" transform="translate(0 0)">
      <rect id="Rectangle_3325" data-name="Rectangle 3325" width="1" height="1" transform="translate(-0.062 0.097)" fill="#999"/>
    </g>
  </g>
  <g id="Group_4208" data-name="Group 4208" transform="translate(4.123 7.903)">
    <g id="Group_4207" data-name="Group 4207" transform="translate(0 0)">
      <rect id="Rectangle_3326" data-name="Rectangle 3326" width="1" height="1" transform="translate(-0.123 0.097)" fill="#999"/>
    </g>
  </g>
  <g id="Group_4210" data-name="Group 4210" transform="translate(6.185 7.903)">
    <g id="Group_4209" data-name="Group 4209" transform="translate(0 0)">
      <rect id="Rectangle_3327" data-name="Rectangle 3327" width="1" height="1" transform="translate(-0.185 0.097)" fill="#999"/>
    </g>
  </g>
  <g id="Group_4212" data-name="Group 4212" transform="translate(8.247 7.903)">
    <g id="Group_4211" data-name="Group 4211" transform="translate(0 0)">
      <rect id="Rectangle_3328" data-name="Rectangle 3328" width="1" height="1" transform="translate(-0.247 0.097)" fill="#999"/>
    </g>
  </g>
  <g id="Group_4214" data-name="Group 4214" transform="translate(2.062 9.965)">
    <g id="Group_4213" data-name="Group 4213" transform="translate(0 0)">
      <rect id="Rectangle_3329" data-name="Rectangle 3329" width="1" height="1" transform="translate(-0.062 0.035)" fill="#999"/>
    </g>
  </g>
  <g id="Group_4216" data-name="Group 4216" transform="translate(4.123 9.965)">
    <g id="Group_4215" data-name="Group 4215" transform="translate(0 0)">
      <rect id="Rectangle_3330" data-name="Rectangle 3330" width="1" height="1" transform="translate(-0.123 0.035)" fill="#999"/>
    </g>
  </g>
  <g id="Group_4218" data-name="Group 4218" transform="translate(6.185 9.965)">
    <g id="Group_4217" data-name="Group 4217" transform="translate(0 0)">
      <rect id="Rectangle_3331" data-name="Rectangle 3331" width="1" height="1" transform="translate(-0.185 0.035)" fill="#999"/>
    </g>
  </g>
  <g id="Group_4220" data-name="Group 4220" transform="translate(8.247 9.965)">
    <g id="Group_4219" data-name="Group 4219" transform="translate(0 0)">
      <rect id="Rectangle_3332" data-name="Rectangle 3332" width="1" height="1" transform="translate(-0.247 0.035)" fill="#999"/>
    </g>
  </g>
  <g id="Group_4222" data-name="Group 4222" transform="translate(10.308 7.903)">
    <g id="Group_4221" data-name="Group 4221" transform="translate(0 0)">
      <rect id="Rectangle_3333" data-name="Rectangle 3333" width="1" height="1" transform="translate(-0.308 0.097)" fill="#999"/>
    </g>
  </g>
</svg>
