<svg xmlns="http://www.w3.org/2000/svg" width="15.803" height="15.803" viewBox="0 0 15.803 15.803">
  <path id="Path_11" data-name="Path 11" d="M14.556,10.405a9.035,9.035,0,0,1-2.835-.451,1.215,1.215,0,0,0-1.233.261L8.693,11.57a10.021,10.021,0,0,1-4.46-4.459L5.552,5.36a1.259,1.259,0,0,0,.309-1.273,9.031,9.031,0,0,1-.454-2.84A1.249,1.249,0,0,0,4.159,0H1.248A1.249,1.249,0,0,0,0,1.248,14.573,14.573,0,0,0,14.556,15.8,1.249,1.249,0,0,0,15.8,14.556v-2.9A1.249,1.249,0,0,0,14.556,10.405Z" fill="#fff"/>
</svg>
