<svg id="Icon" xmlns="http://www.w3.org/2000/svg" width="15.513" height="17.77" viewBox="0 0 15.513 17.77">
  <path id="Path_44975" data-name="Path 44975" d="M121.81,9.405h6.247a.52.52,0,0,0,.521-.521V2.6a.52.52,0,0,0-.521-.521h-1.562V1.562a1.562,1.562,0,1,0-3.124,0v.521H121.81a.52.52,0,0,0-.521.521V8.885A.52.52,0,0,0,121.81,9.405Zm2.6-7.844a.521.521,0,0,1,1.041,0v.521h-1.041Zm0,0" transform="translate(-117.08)" fill="#0175b2"/>
  <path id="Path_44976" data-name="Path 44976" d="M15.437,241.251a.521.521,0,0,0-.445-.251,2.466,2.466,0,0,0-2.185,1.322l-1.6,3.048a1.559,1.559,0,0,1-1.384.837H6.291a.521.521,0,0,1,0-1.041H9.827a.52.52,0,0,0,.462-.279l.6-1.139a.454.454,0,0,0-.4-.664H5.071a2.586,2.586,0,0,0-1.84.763L.152,246.923a.52.52,0,0,0,0,.736l2.6,2.593a.52.52,0,0,0,.736,0l1.975-1.965H9.827a3.636,3.636,0,0,0,3.228-1.953l2.4-4.573a.519.519,0,0,0-.015-.512Zm0,0" transform="translate(0 -232.635)" fill="#0175b2"/>
</svg>
