<svg id="Icon" xmlns="http://www.w3.org/2000/svg" width="12.583" height="15.003" viewBox="0 0 12.583 15.003">
  <path id="Path_44978" data-name="Path 44978" d="M114.677,6.456v.011a1.189,1.189,0,0,0,.683,1.131l.006,0a1.743,1.743,0,0,1,.789.76l0,.006a1.265,1.265,0,0,0,1.191.659h.011l.1,0a1.817,1.817,0,0,1,.974.282,1.31,1.31,0,0,0,1.389,0,1.817,1.817,0,0,1,1.075-.279h.01a1.264,1.264,0,0,0,1.19-.659l0,0a1.746,1.746,0,0,1,.791-.762l0,0a1.189,1.189,0,0,0,.683-1.131v-.01a1.692,1.692,0,0,1,.295-1.05,1.156,1.156,0,0,0,0-1.308,1.693,1.693,0,0,1-.3-1.05V3.038a1.189,1.189,0,0,0-.683-1.131l-.005,0a1.744,1.744,0,0,1-.79-.76l0-.007a1.264,1.264,0,0,0-1.19-.658H120.9A1.82,1.82,0,0,1,119.823.2a1.311,1.311,0,0,0-1.389,0,1.819,1.819,0,0,1-1.075.279h-.01a1.265,1.265,0,0,0-1.191.659l0,.006a1.746,1.746,0,0,1-.79.761l-.005,0a1.188,1.188,0,0,0-.682,1.131v.01a1.694,1.694,0,0,1-.295,1.05,1.156,1.156,0,0,0,0,1.308,1.694,1.694,0,0,1,.295,1.05Zm7.381-.194a1.311,1.311,0,1,1-2.6,0,1.311,1.311,0,1,1,2.6,0ZM120.7,1.74a.265.265,0,1,1,.449.281L117.56,7.765a.265.265,0,1,1-.449-.281Zm-3.2.016a1.4,1.4,0,0,1,1.3,1.486,1.311,1.311,0,1,1-2.6,0,1.4,1.4,0,0,1,1.3-1.486Zm0,0" transform="translate(-112.287 -0.001)" fill="#0175b2"/>
  <path id="Path_44980" data-name="Path 44980" d="M75.615,277.341l-.006,0-2.458,1.162a1.913,1.913,0,0,1,.034.414.265.265,0,0,1-.265.257h-.008l-3.6-.1a.265.265,0,1,1,.014-.53l3.308.091A1.364,1.364,0,0,0,71.33,277.5l-2.189-.06a2.885,2.885,0,0,1-1.24-.32l-.223-.115a3.365,3.365,0,0,0-3.435.193l-.087,3.184.376-.2a1.636,1.636,0,0,1,1.22-.133l3.715,1.043a3.471,3.471,0,0,0,2.126-.238l5.146-3.329a.962.962,0,0,0-1.123-.186Zm0,0" transform="translate(-64.156 -266.161)" fill="#0175b2"/>
</svg>
