<svg xmlns="http://www.w3.org/2000/svg" width="31.389" height="31.389" viewBox="0 0 31.389 31.389">
  <path id="Path_11" data-name="Path 11" d="M28.911,20.667a17.945,17.945,0,0,1-5.63-.9,2.412,2.412,0,0,0-2.45.519l-3.563,2.691a19.9,19.9,0,0,1-8.858-8.857l2.618-3.479a2.5,2.5,0,0,0,.613-2.528,17.938,17.938,0,0,1-.9-5.64A2.481,2.481,0,0,0,8.26,0H2.478A2.481,2.481,0,0,0,0,2.478,28.945,28.945,0,0,0,28.911,31.389a2.481,2.481,0,0,0,2.478-2.478V23.145A2.481,2.481,0,0,0,28.911,20.667Z" fill="#0175b2"/>
</svg>
