<?xml version="1.0" encoding="utf-8"?>
<!-- Generator: Adobe Illustrator 19.0.0, SVG Export Plug-In . SVG Version: 6.00 Build 0)  -->
<svg version="1.1" id="Capa_1" xmlns="http://www.w3.org/2000/svg" xmlns:xlink="http://www.w3.org/1999/xlink" x="0px" y="0px"
	 viewBox="-46 -6 405.3 512" style="enable-background:new -46 -6 405.3 512;" xml:space="preserve">
<style type="text/css">
	.st0{fill:#0175B2;}
</style>
<g>
	<g id="XMLID_109_">
		<path id="XMLID_111_" class="st0" d="M-10.2,265.6h54.7c8.7,0,13.4,7.6,13.4,13.4s0,29.3,0,35.6v29.8c0,15.3,0,25.4,0,37
			c0,7.9,0,111,0,111c0,8.3-7,13.4-13.4,13.4c-5.7,0-77.1,0-77.1,0c-6.8,0-13.4-5.7-13.4-13.4c0-7.7,0-213.4,0-213.4
			c0-7.5,6.2-13.4,13.4-13.4c6.1,0,4.5,0,4.5,0h72.6"/>
		<path id="XMLID_110_" class="st0" d="M57.9,314.7c0-6,0-35.6,0-35.6s29.5-16.5,31.2-17.4c16.8-8.8,40.9-29,52-60.5
			c1.6-4.4,24.6-67.9,24.6-67.9s7.4,2.2,9.3,2.8c13.3,3.9,24.1,14.1,28.9,24.1c3.9,7.2,8.2,23.8,2.8,37.5
			c-2.3,6.7-18.9,56.2-18.9,56.2s-1.5,4,1.2,8.1c0.4,0.6,2.9,3.7,7.3,3.7s107.5,0,113.7,0c11.1,0,23.3,8.5,23.3,23.3
			c0,10.7-8.3,23.3-23.3,23.3c-6.6,0-59.3,0-65.5,0s-9,5.7-9,9c0,3.8,3,9,9,9c5.9,0,91.5,0,91.5,0c12.5,0,23.3,10.3,23.3,23.3
			s-10.9,23.3-23.3,23.3c-12.4,0-85.5,0-91.5,0s-9,5.2-9,9s3.1,9,9,9s58.2,0,68.1,0c12.4,0,23.3,10,23.3,23.3
			c0,11-8.9,23.3-23.3,23.3c-15.3,0-68.1,0-68.1,0c-6,0-9,5.3-9,9s2.8,9,9,9s43,0,43,0c12,0,23.3,9.6,23.3,23.3
			c0,9.8-7.5,23.3-23.3,23.3s-135.9,0-163,0c-29.9,0-48.3-9-66.5-16.1V381.5"/>
	</g>
	<g id="XMLID_45_">
		<path id="XMLID_112_" class="st0" d="M181,48.3L168.9,20l-12.1,28.3c-0.8,2-2.7,3.4-4.9,3.6l-30.6,2.8L144.4,75
			c1.7,1.4,2.4,3.7,1.9,5.8l-6.8,30l26.3-15.7c0.9-0.6,2-0.8,3.1-0.8s2.1,0.3,3.1,0.8l26.3,15.8l-6.8-30c-0.5-2.1,0.2-4.4,1.9-5.8
			l23.1-20.3l-30.6-2.9C183.7,51.7,181.8,50.4,181,48.3z"/>
		<path id="XMLID_115_" class="st0" d="M312.4-6.1h-287C9.6-6.1-3.2,6.7-3.2,22.5v235.4h47.7c7.8,0,14.4,4.4,17.8,9.9
			c2.9-1.6,26.8-15,26.8-15c4.7-2.9,28.8-16.8,43-49.8l28.8-79.2c0,0,12.2,3.7,15,4.5c13.1,4.1,34.4,14.6,40,43.8
			c2.8,16.4-1.2,26.2-2.9,31.2c-1.8,5-17.6,52.1-17.9,53c-0.4,1.3,0.8,1.6,1.3,1.6s114.5,0,114.5,0c10.8,0,23.3,7.7,28.1,20.2
			c1.4-3.3,2.2-7,2.2-10.9V22.5C341,6.7,328.2-6.1,312.4-6.1z M119.7,92.5l-24.5,21.4l7.2,31.8c0.5,2.3-0.4,4.8-2.3,6.2
			c-1.9,1.4-4.5,1.5-6.5,0.3l-27.9-16.7l-27.9,16.7c-0.9,0.6-2,0.8-3.1,0.8c-1.2,0-2.4-0.4-3.5-1.1c-1.9-1.4-2.8-3.8-2.3-6.2
			l7.2-31.8L11.6,92.5c-1.8-1.6-2.5-4.1-1.7-6.3c0.7-2.3,2.7-3.9,5.1-4.1l32.4-2.9l12.8-29.9c0.9-2.2,3.1-3.6,5.5-3.6
			s4.5,1.4,5.5,3.6L84,79.2l32.4,2.9c2.4,0.2,4.4,1.8,5.1,4.1C122.2,88.4,121.5,90.9,119.7,92.5z M205.7,111.6
			c0.5,2.3-0.4,4.8-2.3,6.2c-1.9,1.4-4.5,1.5-6.5,0.3L169,101.4l-27.9,16.7c-0.9,0.6-2,0.8-3.1,0.8c-1.2,0-2.4-0.4-3.5-1.1
			c-1.9-1.4-2.8-3.8-2.3-6.2l7.2-31.8l-24.5-21.4c-1.8-1.6-2.5-4.1-1.7-6.3c0.7-2.3,2.7-3.9,5.1-4.1l32.4-2.9l12.8-29.9
			c0.9-2.2,3.1-3.6,5.5-3.6s4.5,1.4,5.5,3.6l12.8,29.9l32.4,2.9c2.4,0.2,4.4,1.8,5.1,4.1s0.1,4.8-1.7,6.3l-24.5,21.4L205.7,111.6z
			 M326.1,92.7l-24.5,21.4l7.2,31.8c0.5,2.3-0.4,4.8-2.3,6.2c-1.9,1.4-4.5,1.5-6.5,0.3l-27.9-16.7l-27.9,16.7
			c-0.9,0.6-2,0.8-3.1,0.8c-1.2,0-2.4-0.4-3.5-1.1c-1.9-1.4-2.8-3.8-2.3-6.2l7.2-31.8L218,92.7c-1.8-1.6-2.5-4.1-1.7-6.3
			c0.7-2.3,2.7-3.9,5.1-4.1l32.4-2.9l12.8-29.9c0.9-2.2,3.1-3.6,5.5-3.6c2.4,0,4.5,1.4,5.5,3.6l12.8,29.9l32.4,2.9
			c2.4,0.2,4.4,1.8,5.1,4.1S327.9,91.2,326.1,92.7z"/>
		<path id="XMLID_118_" class="st0" d="M284.1,82.7l-12-28.3L260,82.7c-0.9,2-2.7,3.4-4.9,3.6l-30.6,2.8l23.1,20.3
			c1.7,1.4,2.4,3.7,1.9,5.8l-6.8,30l26.3-15.7c0.9-0.6,2-0.8,3.1-0.8c1.1,0,2.1,0.3,3.1,0.8l26.3,15.8l-6.8-30
			c-0.5-2.1,0.2-4.4,1.9-5.8l23.1-20.3l-30.6-2.9C286.9,86.1,285,84.7,284.1,82.7z"/>
		<path id="XMLID_119_" class="st0" d="M77.7,82.4L65.6,54.1L53.5,82.4c-0.8,2-2.7,3.4-4.9,3.6l-30.5,2.8l23.1,20.3
			c1.7,1.4,2.4,3.7,1.9,5.8l-6.8,30l26.3-15.7c0.9-0.6,2-0.8,3.1-0.8s2.1,0.3,3.1,0.8l26.3,15.7l-6.8-30c-0.5-2.1,0.2-4.4,1.9-5.8
			l23.1-20.3L82.7,86C80.5,85.9,78.6,84.5,77.7,82.4z"/>
	</g>
</g>
</svg>
